<svg xmlns="http://www.w3.org/2000/svg" width="711" height="211" viewBox="245 268 720 220">
<g>
<path d="M 445.46 477.12 L 439.58 470.23 L 435.04 471.57 C422.15,475.37 385.00,479.67 385.00,477.36 C385.00,476.87 387.66,475.00 390.91,473.21 C395.25,470.83 398.97,469.70 404.95,468.95 C415.47,467.63 435.28,463.59 441.02,461.59 C447.17,459.45 448.27,459.59 450.04,462.75 C451.57,465.48 451.55,465.51 447.68,467.25 C443.96,468.92 443.84,469.11 445.22,471.25 C448.93,477.01 452.20,483.13 451.79,483.55 C451.54,483.80 448.69,480.90 445.46,477.12 ZM 359.72 476.41 C350.09,474.67 329.49,468.04 317.50,462.82 C308.78,459.02 287.98,447.19 288.02,446.06 C288.03,445.75 288.88,444.41 289.90,443.09 L 291.76 440.67 L 298.13 444.06 C310.50,450.65 320.65,455.30 334.50,460.72 C351.41,467.35 369.00,475.65 369.00,477.01 C369.00,478.16 369.63,478.21 359.72,476.41 ZM 283.87 471.25 C289.12,464.76 295.74,458.00 296.83,458.00 C299.09,458.00 299.10,460.27 296.85,462.67 C293.98,465.76 282.48,475.00 281.52,475.00 C281.14,475.00 282.20,473.31 283.87,471.25 ZM 373.50 472.85 C370.39,471.05 347.57,456.38 336.75,449.24 C331.39,445.69 327.01,442.50 327.02,442.15 C327.03,441.79 327.92,440.38 329.00,439.00 C331.43,435.89 331.44,434.88 329.08,417.03 C328.03,409.04 326.62,395.30 325.95,386.50 C324.70,370.14 323.99,367.00 321.52,367.00 C320.75,367.00 319.43,366.03 318.60,364.85 C316.57,361.95 317.71,360.08 324.22,355.61 C327.13,353.62 333.33,349.26 338.00,345.92 C355.53,333.40 356.37,332.94 363.38,331.95 C367.03,331.43 370.35,331.06 370.76,331.12 C372.84,331.45 374.04,330.88 373.41,329.86 C372.93,329.08 369.82,328.90 363.36,329.28 L 354.00 329.84 L 354.00 326.95 C354.00,323.41 357.29,321.43 364.84,320.43 C370.68,319.65 371.49,318.49 366.89,317.48 C363.20,316.66 356.52,310.90 354.26,306.58 C352.16,302.54 352.22,292.41 354.37,288.24 C359.68,277.99 372.37,273.21 382.78,277.55 C391.59,281.22 397.95,291.65 396.59,300.19 C395.25,308.54 389.05,316.44 382.86,317.68 C379.57,318.34 378.99,320.00 382.06,320.00 C387.57,320.00 393.24,322.34 395.10,325.39 C396.14,327.10 396.99,328.86 397.00,329.30 C397.00,329.73 392.39,329.79 386.75,329.42 C374.64,328.63 374.15,330.23 385.94,332.06 C393.02,333.16 394.05,333.68 407.44,343.03 C431.77,360.02 433.14,361.07 432.75,362.30 C432.54,362.96 430.73,364.57 428.74,365.88 C424.55,368.63 425.32,364.24 421.61,406.77 L 419.15 435.04 L 422.07 438.24 C423.68,440.00 424.97,441.91 424.93,442.47 C424.84,443.91 380.53,473.19 377.76,473.64 C376.52,473.85 374.60,473.49 373.50,472.85 ZM 377.21 460.35 L 377.50 450.70 L 384.00 448.98 C387.58,448.03 396.91,445.74 404.75,443.88 C412.58,442.02 419.00,440.16 419.00,439.75 C419.00,438.27 411.90,439.05 393.37,442.56 C376.88,445.69 374.00,445.99 370.03,444.98 C356.15,441.49 330.52,437.85 332.31,439.64 C332.66,439.99 342.07,442.59 353.22,445.41 L 373.50 450.54 L 373.75 458.02 C374.05,466.70 374.66,470.00 375.98,470.00 C376.50,470.00 377.06,465.66 377.21,460.35 ZM 389.63 435.32 L 395.77 433.81 L 396.45 420.66 C398.00,390.89 398.69,369.46 398.11,368.83 C397.15,367.76 382.58,366.00 374.68,365.99 C370.73,365.99 364.01,366.52 359.75,367.17 L 352.00 368.35 L 352.00 372.78 C352.00,382.65 354.21,426.73 354.87,429.96 C355.49,433.00 356.06,433.53 359.54,434.29 C361.72,434.76 366.20,435.77 369.50,436.52 C375.86,437.97 379.75,437.74 389.63,435.32 ZM 346.36 431.50 C346.29,430.95 345.72,421.50 345.11,410.50 C344.49,399.50 343.72,385.86 343.39,380.18 L 342.80 369.86 L 338.65 370.53 C336.37,370.90 334.19,371.50 333.81,371.85 C333.05,372.56 336.29,412.68 338.12,425.30 L 339.25 433.11 L 342.87 432.80 C344.87,432.64 346.44,432.05 346.36,431.50 ZM 411.44 430.75 C412.35,426.42 415.07,396.39 415.68,383.82 L 416.30 371.15 L 412.72 370.47 C410.74,370.10 408.65,370.10 408.06,370.46 C407.44,370.85 406.99,374.92 406.97,380.31 C406.94,388.67 406.53,395.73 404.41,423.75 L 403.71 433.00 L 407.34 433.00 C410.29,433.00 411.05,432.58 411.44,430.75 ZM 353.50 355.93 C373.58,352.85 378.72,352.73 389.50,355.04 C393.88,355.98 419.67,360.00 421.31,360.00 C427.14,360.00 391.56,351.21 380.50,349.91 C372.07,348.93 370.59,349.05 357.00,351.93 C338.12,355.93 329.01,358.32 329.00,359.27 C329.00,359.69 330.01,359.80 331.25,359.52 C332.49,359.23 342.50,357.62 353.50,355.93 ZM 374.00 343.50 C374.00,343.34 373.33,342.95 372.50,342.64 C371.60,342.29 371.00,342.63 371.00,343.50 C371.00,344.37 371.60,344.71 372.50,344.36 C373.33,344.05 374.00,343.66 374.00,343.50 ZM 370.00 308.61 C370.00,305.07 371.25,304.00 375.38,304.00 C378.38,304.00 380.00,305.83 380.00,309.20 C380.00,312.71 380.93,312.73 384.25,309.25 C389.59,303.65 390.54,295.73 386.56,289.88 C383.97,286.06 378.72,282.99 374.85,283.02 C370.71,283.06 364.13,286.74 362.02,290.19 C358.31,296.28 360.03,305.62 365.63,309.79 C369.51,312.69 370.00,312.55 370.00,308.61 ZM 460.35 461.95 C456.17,459.27 453.61,453.80 454.36,449.14 C456.49,436.06 473.78,432.96 479.47,444.65 C481.45,448.72 481.41,452.34 479.33,456.72 C476.06,463.60 466.88,466.13 460.35,461.95 ZM 276.80 460.65 C275.22,459.44 275.24,459.23 277.15,457.61 C279.08,455.95 279.29,455.95 281.09,457.58 C282.54,458.89 282.73,459.63 281.87,460.65 C280.49,462.32 279.00,462.32 276.80,460.65 ZM 431.25 455.63 C428.08,452.02 427.33,450.01 428.65,448.68 C429.65,447.68 435.20,455.74 434.83,457.65 C434.57,458.96 433.77,458.50 431.25,455.63 ZM 264.50 444.67 C258.74,442.42 256.98,440.89 254.50,436.00 C251.44,429.97 251.35,425.98 254.12,420.25 C261.12,405.79 282.69,407.42 286.94,422.72 C288.24,427.40 288.24,428.58 286.99,433.08 C285.60,438.10 279.83,443.55 274.49,444.90 C269.26,446.22 268.39,446.20 264.50,444.67 ZM 315.00 445.06 C315.00,443.91 322.65,434.97 323.69,434.90 C325.80,434.76 324.70,437.37 320.94,441.45 C316.87,445.86 315.00,447.00 315.00,445.06 ZM 425.59 430.69 C423.96,429.50 424.65,428.71 433.07,422.05 L 442.35 414.73 L 439.63 412.75 C438.14,411.66 435.13,409.28 432.94,407.45 L 428.97 404.13 L 431.21 402.57 C432.44,401.71 433.84,401.00 434.32,401.00 C434.80,401.00 437.92,403.08 441.27,405.62 L 447.35 410.25 L 450.21 406.87 C460.84,394.31 466.35,382.28 467.64,368.73 L 468.29 361.95 L 451.65 370.10 C437.87,376.86 434.75,378.04 433.51,377.01 C432.68,376.32 432.00,375.33 432.00,374.80 C432.00,373.81 464.07,358.00 466.08,358.00 C467.53,358.00 466.60,354.00 463.74,348.00 C461.27,342.81 453.36,334.51 447.13,330.58 C442.46,327.63 429.05,322.00 426.70,322.00 C425.90,322.00 423.09,325.83 420.47,330.50 C417.85,335.17 415.43,338.98 415.10,338.96 C414.77,338.95 413.50,338.38 412.29,337.70 L 410.07 336.47 L 414.52 328.98 C416.97,324.87 418.98,321.20 418.99,320.83 C419.00,319.93 414.41,318.97 406.24,318.16 C399.04,317.45 397.69,316.17 400.33,312.56 C401.67,310.73 402.13,310.71 412.52,312.16 L 423.31 313.66 L 429.32 304.33 C432.62,299.19 435.48,295.14 435.66,295.33 C436.14,295.80 432.57,305.99 430.61,309.79 C429.72,311.50 429.00,313.30 429.00,313.78 C429.00,314.26 432.78,316.09 437.40,317.85 C447.63,321.73 459.23,329.14 464.40,335.09 C468.11,339.35 474.00,350.19 474.00,352.75 C474.00,354.35 473.44,354.48 481.53,351.03 C491.75,346.67 492.54,347.37 483.75,353.00 L 476.00 357.97 L 475.98 364.74 C475.94,381.29 469.21,397.90 457.15,411.26 C453.83,414.93 453.76,415.15 455.59,416.44 C461.53,420.62 469.12,426.95 469.08,427.67 C469.05,428.12 468.23,428.56 467.26,428.63 C466.29,428.71 464.36,429.07 462.97,429.44 C461.03,429.95 459.44,429.34 456.08,426.80 C453.67,424.99 450.89,422.89 449.89,422.15 C448.28,420.96 447.21,421.44 440.41,426.40 C432.52,432.17 429.00,433.18 425.59,430.69 ZM 767.50 428.28 C762.07,427.31 760.78,426.75 757.59,423.95 C752.88,419.81 752.00,414.87 752.00,392.45 L 752.00 374.00 L 760.50 374.00 L 769.00 374.00 L 769.00 392.37 C769.00,409.25 769.16,410.94 771.01,413.29 C773.44,416.38 777.33,417.37 781.86,416.05 C787.69,414.36 787.93,413.43 787.97,392.75 L 788.00 374.00 L 795.97 374.00 L 803.94 374.00 L 804.22 400.00 L 804.50 426.00 L 796.75 426.00 C789.03,426.00 789.00,425.99 789.00,423.35 C789.00,420.90 788.86,420.81 787.25,422.23 C782.62,426.30 772.97,429.25 767.50,428.28 ZM 649.16 425.88 C643.18,423.99 642.85,423.72 643.46,421.32 C643.81,419.92 644.36,417.47 644.67,415.88 C645.35,412.52 645.24,412.55 649.02,414.51 C652.63,416.38 662.54,417.50 667.39,416.59 C670.10,416.08 671.14,415.30 671.60,413.44 C672.51,409.82 670.77,408.42 661.67,405.43 C645.46,400.11 642.24,396.73 642.84,385.63 C643.09,381.15 649.40,375.52 656.50,373.46 C663.20,371.51 673.77,371.88 680.50,374.31 C684.47,375.74 684.50,375.78 684.24,380.55 C684.10,383.19 683.80,385.53 683.59,385.74 C683.37,385.96 680.82,385.43 677.92,384.57 C671.11,382.55 663.10,382.54 660.22,384.56 C655.42,387.92 658.10,390.49 670.50,394.43 C680.66,397.66 684.24,399.88 686.33,404.28 C689.43,410.82 688.10,417.83 682.85,422.65 C676.88,428.12 661.03,429.64 649.16,425.88 ZM 928.36 426.96 C922.13,425.06 915.63,419.74 912.57,414.03 C906.80,403.26 909.28,387.50 917.99,379.63 C922.37,375.68 931.45,372.00 936.86,372.00 C951.52,372.00 961.92,381.89 962.32,396.22 L 962.50 402.50 L 944.50 403.00 L 926.50 403.50 L 926.77 406.00 C927.73,415.08 939.64,419.37 952.92,415.43 C955.82,414.57 958.33,414.01 958.49,414.18 C958.66,414.36 959.48,416.17 960.33,418.21 L 961.86 421.92 L 956.18 424.71 C951.32,427.10 949.13,427.53 941.00,427.70 C935.78,427.82 930.09,427.48 928.36,426.96 ZM 947.00 391.42 C947.00,387.27 941.98,383.00 937.09,383.00 C932.35,383.00 927.48,386.77 926.43,391.25 L 925.78 394.00 L 936.39 394.00 L 947.00 394.00 L 947.00 391.42 ZM 504.01 425.29 C504.01,424.86 510.49,406.50 518.40,384.50 L 532.78 344.50 L 541.25 344.21 L 549.73 343.93 L 551.81 349.71 C552.96,352.90 555.98,361.58 558.53,369.00 C561.08,376.42 563.85,384.30 564.69,386.50 C565.53,388.70 566.80,392.30 567.51,394.50 C568.22,396.70 570.88,404.50 573.40,411.84 C575.93,419.17 578.00,425.38 578.00,425.63 C578.00,425.87 574.09,425.95 569.31,425.79 L 560.61 425.50 L 557.56 416.50 L 554.50 407.50 L 540.00 407.50 L 525.50 407.50 L 522.39 416.50 L 519.28 425.50 L 511.64 425.79 C507.44,425.95 504.00,425.73 504.01,425.29 ZM 550.56 393.31 C550.21,392.37 547.88,385.40 545.40,377.81 C542.92,370.21 540.48,364.00 539.98,364.00 C539.49,364.00 537.07,370.19 534.63,377.75 C532.18,385.31 529.86,392.29 529.48,393.25 C528.84,394.85 529.72,395.00 540.00,395.00 C550.13,395.00 551.15,394.84 550.56,393.31 ZM 584.00 400.00 L 584.00 374.00 L 590.88 374.00 C597.74,374.00 597.75,374.00 598.36,377.06 L 598.97 380.12 L 602.31 377.58 C606.47,374.41 613.15,372.00 617.81,372.00 C623.18,372.00 629.30,375.40 631.75,379.76 C633.69,383.22 633.88,385.23 634.08,404.51 L 634.31 425.50 L 626.15 425.79 L 618.00 426.08 L 618.00 407.49 C618.00,389.10 617.98,388.88 615.55,386.45 C612.20,383.11 607.15,383.17 603.08,386.59 L 600.00 389.18 L 600.00 407.59 L 600.00 426.00 L 592.00 426.00 L 584.00 426.00 L 584.00 400.00 ZM 696.00 400.00 L 696.00 374.00 L 704.50 374.00 L 713.00 374.00 L 713.00 400.00 L 713.00 426.00 L 704.50 426.00 L 696.00 426.00 L 696.00 400.00 ZM 725.00 385.00 L 725.00 344.00 L 733.00 344.00 L 741.00 344.00 L 741.00 385.00 L 741.00 426.00 L 733.00 426.00 L 725.00 426.00 L 725.00 385.00 ZM 815.80 412.25 C815.64,404.69 815.63,392.99 815.78,386.25 L 816.06 374.00 L 823.53 374.00 L 831.00 374.00 L 831.00 377.00 C831.00,380.36 832.08,380.82 834.13,378.34 C836.29,375.73 845.13,372.02 849.23,372.01 C854.46,372.00 860.66,374.72 863.05,378.08 L 865.08 380.92 L 869.39 377.63 C877.18,371.69 888.95,370.33 894.80,374.70 C901.35,379.59 901.47,380.11 901.82,404.07 L 902.14 426.00 L 894.07 426.00 L 886.00 426.00 L 886.00 409.15 C886.00,391.68 885.17,386.70 881.96,384.98 C877.60,382.65 869.21,384.87 867.03,388.94 C866.44,390.05 866.00,398.30 866.00,408.43 L 866.00 426.00 L 858.56 426.00 L 851.12 426.00 L 850.81 407.58 C850.51,389.66 850.43,389.09 848.08,386.58 C845.00,383.31 840.48,383.20 835.90,386.29 L 832.50 388.58 L 832.23 407.29 L 831.96 426.00 L 824.03 426.00 L 816.11 426.00 L 815.80 412.25 ZM 308.97 421.02 L 306.43 418.22 L 308.88 416.04 L 311.32 413.87 L 313.60 416.18 L 315.88 418.50 L 313.69 421.16 L 311.50 423.82 L 308.97 421.02 ZM 281.25 407.88 C279.46,406.74 278.01,405.51 278.02,405.15 C278.07,403.22 293.00,392.77 300.35,389.52 C306.93,386.62 316.24,383.80 315.54,384.93 C315.25,385.40 310.65,388.87 305.30,392.64 C299.96,396.41 293.22,401.86 290.32,404.75 C287.42,407.64 284.92,409.99 284.77,409.98 C284.62,409.97 283.04,409.03 281.25,407.88 ZM 257.17 402.25 C252.66,393.50 251.18,378.24 253.89,368.50 C257.15,356.82 269.31,339.48 277.06,335.47 C279.72,334.09 279.98,334.16 281.99,336.71 L 284.11 339.41 L 278.12 345.12 C270.86,352.05 265.68,359.64 263.00,367.26 C260.32,374.89 260.32,386.11 263.00,393.74 C264.10,396.87 265.00,399.77 265.00,400.19 C265.00,400.89 259.76,404.00 258.58,404.00 C258.30,404.00 257.66,403.21 257.17,402.25 ZM 443.71 394.23 C442.16,392.52 442.18,392.29 444.01,390.73 C445.85,389.15 446.02,389.17 447.08,391.14 C447.94,392.76 447.88,393.55 446.78,394.65 C445.56,395.87 445.14,395.81 443.71,394.23 ZM 308.00 375.92 C294.83,370.39 284.94,365.73 285.41,365.26 C285.91,364.76 311.22,372.20 316.33,374.35 C318.94,375.45 320.05,376.49 319.83,377.65 C319.65,378.58 319.05,379.46 318.50,379.62 C317.95,379.77 313.23,378.11 308.00,375.92 ZM 697.45 361.35 C693.22,356.78 694.47,350.36 700.17,347.41 C709.53,342.57 718.89,354.20 711.55,361.55 C707.97,365.12 700.85,365.03 697.45,361.35 ZM 311.65 348.16 C310.09,346.45 310.10,346.22 311.82,344.66 C314.26,342.46 315.70,342.57 317.03,345.06 C317.85,346.60 317.83,347.50 316.95,348.56 C315.34,350.50 313.65,350.37 311.65,348.16 ZM 439.75 348.92 C437.45,347.58 437.53,345.77 439.96,344.26 C441.62,343.22 442.14,343.36 443.43,345.20 C444.54,346.80 444.66,347.71 443.85,348.68 C442.55,350.24 442.07,350.27 439.75,348.92 ZM 293.74 337.60 C288.60,335.73 286.99,334.22 284.77,329.20 C283.45,326.22 283.07,323.92 283.55,321.70 C285.44,312.94 290.25,309.01 299.10,309.00 C305.73,309.00 310.28,311.58 313.15,316.98 C315.58,321.56 315.48,324.62 312.75,330.02 C309.16,337.10 301.13,340.30 293.74,337.60 ZM 332.56 331.75 C327.21,321.71 327.60,322.06 322.94,323.24 C318.32,324.42 317.98,324.23 317.70,320.44 C317.53,318.06 318.00,317.48 320.75,316.67 C322.54,316.14 324.00,315.21 323.99,314.61 C323.99,314.00 322.39,309.28 320.45,304.13 C318.51,298.97 317.08,294.59 317.29,294.38 C317.73,293.93 326.30,307.34 328.09,311.29 C329.13,313.57 329.82,313.98 331.93,313.53 C333.34,313.23 337.88,312.56 342.00,312.04 C348.73,311.20 349.69,311.29 351.39,312.97 C353.86,315.41 352.82,318.00 349.36,318.00 C344.92,318.00 334.00,320.14 334.00,321.01 C334.00,321.46 335.85,325.04 338.12,328.97 C342.06,335.80 342.16,336.17 340.37,337.52 C339.34,338.30 338.03,338.95 337.46,338.97 C336.89,338.99 334.68,335.74 332.56,331.75 ZM 418.61 284.43 C418.29,283.60 416.56,282.28 414.77,281.50 C412.97,280.72 412.23,280.06 413.11,280.04 C414.00,280.02 415.81,278.92 417.14,277.59 L 419.55 275.18 L 422.79 277.84 L 426.03 280.50 L 422.61 283.22 C419.81,285.44 419.08,285.66 418.61,284.43 ZM 365.75 428.65 C361.04,424.28 359.55,420.17 359.52,411.50 C359.50,401.94 362.22,392.38 367.51,383.50 C371.41,376.93 378.60,368.26 377.45,371.50 C377.06,372.60 376.56,375.75 376.33,378.50 C375.89,383.98 376.87,386.08 386.24,399.65 C393.73,410.51 393.64,420.18 385.99,427.51 C383.15,430.23 380.62,430.43 382.72,427.77 C386.20,423.36 384.29,413.93 378.52,407.02 C374.67,402.42 374.59,402.46 370.06,412.03 C366.89,418.73 366.17,424.58 368.08,428.15 C369.67,431.13 368.66,431.34 365.75,428.65 Z" fill="rgba(255,255,255,1)"/>
</g>
</svg>